{
  "source": "C:\\Users\\Peter\\Desktop\\stuff\\MIUN\\quantitative_research\\video_compression\\videos\\BVI-HD\\BVI-HD_CDVL_videos\\ORIG\\PaintingTilting_1920x1080_60fps.mp4",
  "output": "C:\\Users\\Peter\\Desktop\\stuff\\MIUN\\quantitative_research\\video_compression\\compressed_videos\\BVI-HD\\av1\\8\\PaintingTilting_1920x1080_60fps_av1.mkv",
  "codec": "av1",
  "ok": "Input #0, mov,mp4,m4a,3gp,3g2,mj2, from 'C:\\Users\\Peter\\Desktop\\stuff\\MIUN\\quantitative_research\\video_compression\\videos\\BVI-HD\\BVI-HD_CDVL_videos\\ORIG\\PaintingTilting_1920x1080_60fps.mp4':\n  Metadata:\n    major_brand     : isom\n    minor_version   : 512\n    compatible_brands: isomiso2avc1mp41\n    encoder         : Lavf54.28.101\n  Duration: 00:00:05.00, start: 0.000000, bitrate: 667707 kb/s\n  Stream #0:0[0x1](und): Video: h264 (High 4:4:4 Predictive) (avc1 / 0x31637661), yuv420p(progressive), 1920x1080, 667702 kb/s, 60 fps, 60 tbr, 60 tbn (default)\n    Metadata:\n      handler_name    : VideoHandler\n      vendor_id       : [0][0][0][0]\n[out#0/matroska @ 000001e460779000] Codec AVOption b:a (set bitrate (in bits/s)) has not been used for any stream. The most likely reason is either wrong type (e.g. a video option with no video streams) or that it is a private option of some decoder which was not actually used for any stream.\nStream mapping:\n  Stream #0:0 -> #0:0 (h264 (native) -> av1 (libsvtav1))\nPress [q] to stop, [?] for help\nSvt[info]: -------------------------------------------\nSvt[info]: SVT [version]:\tSVT-AV1 Encoder Lib v3.1.0-19-g6ecfe8ec\nSvt[info]: SVT [build]  :\tGCC 15.2.0\t 64 bit\nSvt[info]: LIB Build date: Aug 17 2025 11:37:13\nSvt[info]: -------------------------------------------\nSvt[info]: Level of Parallelism: 5\nSvt[info]: Number of PPCS 93\nSvt[info]: [asm level on system : up to avx2]\nSvt[info]: [asm level selected : up to avx2]\nSvt[info]: -------------------------------------------\nSvt[info]: SVT [config]: main profile\ttier (auto)\tlevel (auto)\nSvt[info]: SVT [config]: width / height / fps numerator / fps denominator \t\t: 1920 / 1080 / 60 / 1\nSvt[info]: SVT [config]: bit-depth / color format \t\t\t\t\t: 8 / YUV420\nSvt[info]: SVT [config]: preset / tune / pred struct \t\t\t\t\t: 4 / PSNR / random access\nSvt[info]: SVT [config]: gop size / mini-gop size / key-frame type \t\t\t: 321 / 16 / key frame\nSvt[info]: SVT [config]: BRC mode / target bitrate (kbps)\t\t\t\t: VBR / 8000 \nSvt[info]: SVT [config]: AQ mode / Variance Boost \t\t\t\t\t: 2 / 0\nSvt[info]: SVT [config]: sharpness / luminance-based QP bias \t\t\t\t: 0 / 0\nSvt[info]: SVT [config]: QP scale compress strength \t\t\t\t\t: 0\nSvt[info]: -------------------------------------------\nOutput #0, matroska, to 'C:\\Users\\Peter\\Desktop\\stuff\\MIUN\\quantitative_research\\video_compression\\compressed_videos\\BVI-HD\\av1\\8\\PaintingTilting_1920x1080_60fps_av1.mkv':\n  Metadata:\n    major_brand     : isom\n    minor_version   : 512\n    compatible_brands: isomiso2avc1mp41\n    encoder         : Lavf62.3.100\n  Stream #0:0(und): Video: av1 (AV01 / 0x31305641), yuv420p(tv, progressive), 1920x1080, q=2-31, 8000 kb/s, 60 fps, 1k tbn (default)\n    Metadata:\n      encoder         : Lavc62.11.100 libsvtav1\n      handler_name    : VideoHandler\n      vendor_id       : [0][0][0][0]\n    Side data:\n      cpb: bitrate max/min/avg: 0/0/8000000 buffer size: 8000000 vbv_delay: N/A\nframe=    0 fps=0.0 q=0.0 size=       0KiB time=N/A bitrate=N/A speed=N/A elapsed=0:00:01.64    \nframe=    0 fps=0.0 q=0.0 size=       0KiB time=N/A bitrate=N/A speed=N/A elapsed=0:00:02.29    \nframe=    0 fps=0.0 q=0.0 size=       0KiB time=N/A bitrate=N/A speed=N/A elapsed=0:00:02.89    \nframe=    0 fps=0.0 q=0.0 size=       0KiB time=N/A bitrate=N/A speed=N/A elapsed=0:00:03.60    \nframe=    0 fps=0.0 q=0.0 size=       0KiB time=N/A bitrate=N/A speed=N/A elapsed=0:00:04.20    \nframe=    0 fps=0.0 q=0.0 size=       0KiB time=N/A bitrate=N/A speed=N/A elapsed=0:00:04.79    \nframe=    0 fps=0.0 q=0.0 size=       0KiB time=N/A bitrate=N/A speed=N/A elapsed=0:00:05.36    \nframe=    1 fps=0.2 q=11.0 size=       1KiB time=00:00:00.00 bitrate=N/A speed=   0x elapsed=0:00:05.89    \nframe=    2 fps=0.3 q=35.0 size=       1KiB time=00:00:00.00 bitrate=N/A speed=   0x elapsed=0:00:06.45    \nframe=    6 fps=0.9 q=29.0 size=       1KiB time=00:00:00.08 bitrate=  68.4kbits/s speed=0.0119x elapsed=0:00:06.99    \nframe=   10 fps=1.3 q=27.0 size=       1KiB time=00:00:00.13 bitrate=  42.7kbits/s speed=0.0177x elapsed=0:00:07.53    \nframe=   15 fps=1.9 q=27.0 size=       1KiB time=00:00:00.23 bitrate=  24.4kbits/s speed=0.0288x elapsed=0:00:08.10    \nframe=   19 fps=2.2 q=21.0 size=       1KiB time=00:00:00.30 bitrate=  19.0kbits/s speed=0.0345x elapsed=0:00:08.69    \nframe=   22 fps=2.4 q=21.0 size=       1KiB time=00:00:00.35 bitrate=  16.3kbits/s speed=0.038x elapsed=0:00:09.22    \nframe=   26 fps=2.7 q=36.0 size=       1KiB time=00:00:00.41 bitrate=  13.7kbits/s speed=0.0427x elapsed=0:00:09.75    \nframe=   30 fps=2.9 q=27.0 size=       1KiB time=00:00:00.48 bitrate=  11.8kbits/s speed=0.0468x elapsed=0:00:10.32    \nframe=   36 fps=3.3 q=28.0 size=       1KiB time=00:00:00.58 bitrate=   9.8kbits/s speed=0.0536x elapsed=0:00:10.87    \nframe=   39 fps=3.4 q=28.0 size=       1KiB time=00:00:00.63 bitrate=   9.0kbits/s speed=0.0555x elapsed=0:00:11.41    \nframe=   44 fps=3.7 q=23.0 size=       1KiB time=00:00:00.70 bitrate=   8.1kbits/s speed=0.0584x elapsed=0:00:11.99    \nframe=   49 fps=3.9 q=9.0 size=       1KiB time=00:00:00.80 bitrate=   7.1kbits/s speed=0.0635x elapsed=0:00:12.59    \nframe=   54 fps=4.1 q=26.0 size=       1KiB time=00:00:00.88 bitrate=   6.4kbits/s speed=0.067x elapsed=0:00:13.17    \nframe=   58 fps=4.2 q=27.0 size=       1KiB time=00:00:00.95 bitrate=   6.0kbits/s speed=0.0692x elapsed=0:00:13.72    \nframe=   62 fps=4.3 q=26.0 size=       1KiB time=00:00:01.01 bitrate=   5.6kbits/s speed=0.0713x elapsed=0:00:14.26    \nframe=   68 fps=4.6 q=20.0 size=       1KiB time=00:00:01.11 bitrate=   5.1kbits/s speed=0.0753x elapsed=0:00:14.82    \nframe=   72 fps=4.7 q=24.0 size=       1KiB time=00:00:01.16 bitrate=   4.9kbits/s speed=0.0758x elapsed=0:00:15.39    \nframe=   77 fps=4.8 q=20.0 size=       1KiB time=00:00:01.26 bitrate=   4.5kbits/s speed=0.0794x elapsed=0:00:15.94    \nframe=   81 fps=4.9 q=11.0 size=       1KiB time=00:00:01.33 bitrate=   4.3kbits/s speed=0.0809x elapsed=0:00:16.47    \nframe=   86 fps=5.0 q=27.0 size=       1KiB time=00:00:01.41 bitrate=   4.0kbits/s speed=0.083x elapsed=0:00:17.05    \nframe=   90 fps=5.1 q=27.0 size=       1KiB time=00:00:01.48 bitrate=   3.8kbits/s speed=0.0843x elapsed=0:00:17.59    \nframe=   94 fps=5.2 q=25.0 size=       1KiB time=00:00:01.55 bitrate=   3.7kbits/s speed=0.0855x elapsed=0:00:18.11    \nframe=   99 fps=5.3 q=27.0 size=       1KiB time=00:00:01.63 bitrate=   3.5kbits/s speed=0.0874x elapsed=0:00:18.68    \nframe=  103 fps=5.4 q=20.0 size=       1KiB time=00:00:01.70 bitrate=   3.4kbits/s speed=0.0884x elapsed=0:00:19.23    \nframe=  107 fps=5.4 q=27.0 size=       1KiB time=00:00:01.76 bitrate=   3.2kbits/s speed=0.0893x elapsed=0:00:19.77    \nframe=  111 fps=5.5 q=23.0 size=       1KiB time=00:00:01.83 bitrate=   3.1kbits/s speed=0.0903x elapsed=0:00:20.30    \nframe=  117 fps=5.6 q=23.0 size=       1KiB time=00:00:01.93 bitrate=   2.9kbits/s speed=0.0927x elapsed=0:00:20.84    \nframe=  119 fps=5.6 q=26.0 size=       1KiB time=00:00:01.96 bitrate=   2.9kbits/s speed=0.0919x elapsed=0:00:21.39    \nframe=  123 fps=5.6 q=25.0 size=       1KiB time=00:00:02.03 bitrate=   2.8kbits/s speed=0.0927x elapsed=0:00:21.92    \nframe=  127 fps=5.7 q=23.0 size=       1KiB time=00:00:02.10 bitrate=   2.7kbits/s speed=0.0936x elapsed=0:00:22.44    \nframe=  134 fps=5.8 q=23.0 size=       1KiB time=00:00:02.21 bitrate=   2.6kbits/s speed=0.0965x elapsed=0:00:22.98    \nframe=  138 fps=5.9 q=28.0 size=       1KiB time=00:00:02.28 bitrate=   2.5kbits/s speed=0.097x elapsed=0:00:23.53    \nframe=  143 fps=5.9 q=23.0 size=       1KiB time=00:00:02.35 bitrate=   2.4kbits/s speed=0.0974x elapsed=0:00:24.12    \nframe=  148 fps=6.0 q=26.0 size=       1KiB time=00:00:02.45 bitrate=   2.3kbits/s speed=0.0992x elapsed=0:00:24.69    \nframe=  153 fps=6.1 q=20.0 size=       1KiB time=00:00:02.51 bitrate=   2.3kbits/s speed=0.0996x elapsed=0:00:25.27    \nframe=  156 fps=6.0 q=23.0 size=       1KiB time=00:00:02.58 bitrate=   2.2kbits/s speed=0.0998x elapsed=0:00:25.88    \nframe=  161 fps=6.1 q=11.0 size=       1KiB time=00:00:02.66 bitrate=   2.1kbits/s speed=0.101x elapsed=0:00:26.40    \nframe=  166 fps=6.2 q=26.0 size=       1KiB time=00:00:02.75 bitrate=   2.1kbits/s speed=0.102x elapsed=0:00:26.95    \nframe=  170 fps=6.2 q=26.0 size=       1KiB time=00:00:02.81 bitrate=   2.0kbits/s speed=0.102x elapsed=0:00:27.51    \nframe=  174 fps=6.2 q=25.0 size=       1KiB time=00:00:02.88 bitrate=   2.0kbits/s speed=0.103x elapsed=0:00:28.05    \nframe=  179 fps=6.3 q=25.0 size=       1KiB time=00:00:02.96 bitrate=   1.9kbits/s speed=0.104x elapsed=0:00:28.59    \nframe=  183 fps=6.3 q=25.0 size=       1KiB time=00:00:03.03 bitrate=   1.9kbits/s speed=0.104x elapsed=0:00:29.14    \nframe=  188 fps=6.3 q=23.0 size=       1KiB time=00:00:03.11 bitrate=   1.8kbits/s speed=0.105x elapsed=0:00:29.71    \nframe=  193 fps=6.4 q=11.0 size=       1KiB time=00:00:03.18 bitrate=   1.8kbits/s speed=0.105x elapsed=0:00:30.27    \nframe=  197 fps=6.4 q=23.0 size=       1KiB time=00:00:03.26 bitrate=   1.7kbits/s speed=0.106x elapsed=0:00:30.79    \nframe=  202 fps=6.4 q=28.0 size=       1KiB time=00:00:03.33 bitrate=   1.7kbits/s speed=0.106x elapsed=0:00:31.32    \nframe=  207 fps=6.5 q=23.0 size=       1KiB time=00:00:03.40 bitrate=   1.7kbits/s speed=0.107x elapsed=0:00:31.88    \nframe=  213 fps=6.6 q=23.0 size=       1KiB time=00:00:03.53 bitrate=   1.6kbits/s speed=0.109x elapsed=0:00:32.43    \nframe=  217 fps=6.6 q=20.0 size=       1KiB time=00:00:03.60 bitrate=   1.6kbits/s speed=0.109x elapsed=0:00:32.97    \nframe=  221 fps=6.6 q=24.0 size=       1KiB time=00:00:03.66 bitrate=   1.6kbits/s speed=0.109x elapsed=0:00:33.52    \nframe=  225 fps=6.6 q=12.0 size=       1KiB time=00:00:03.73 bitrate=   1.5kbits/s speed=0.11x elapsed=0:00:34.08    \nframe=  229 fps=6.6 q=23.0 size=       1KiB time=00:00:03.80 bitrate=   1.5kbits/s speed=0.11x elapsed=0:00:34.60    \nframe=  233 fps=6.6 q=20.0 size=       1KiB time=00:00:03.86 bitrate=   1.5kbits/s speed=0.11x elapsed=0:00:35.13    \nframe=  239 fps=6.7 q=23.0 size=       1KiB time=00:00:03.96 bitrate=   1.4kbits/s speed=0.111x elapsed=0:00:35.71    \nframe=  245 fps=6.8 q=23.0 size=       1KiB time=00:00:04.06 bitrate=   1.4kbits/s speed=0.112x elapsed=0:00:36.29    \nframe=  249 fps=6.8 q=19.0 size=       1KiB time=00:00:04.13 bitrate=   1.4kbits/s speed=0.112x elapsed=0:00:36.82    \nframe=  253 fps=6.8 q=24.0 size=       1KiB time=00:00:04.20 bitrate=   1.4kbits/s speed=0.112x elapsed=0:00:37.39    \nframe=  261 fps=6.9 q=23.0 size=       1KiB time=00:00:04.33 bitrate=   1.3kbits/s speed=0.114x elapsed=0:00:38.00    \nframe=  265 fps=6.9 q=20.0 size=       1KiB time=00:00:04.40 bitrate=   1.3kbits/s speed=0.114x elapsed=0:00:38.57    \nframe=  267 fps=6.8 q=27.0 size=       1KiB time=00:00:04.43 bitrate=   1.3kbits/s speed=0.113x elapsed=0:00:39.15    \nframe=  273 fps=6.9 q=11.0 size=       1KiB time=00:00:04.53 bitrate=   1.3kbits/s speed=0.114x elapsed=0:00:39.68    \nframe=  279 fps=6.9 q=26.0 size=       1KiB time=00:00:04.63 bitrate=   1.2kbits/s speed=0.115x elapsed=0:00:40.22    \nframe=  283 fps=6.9 q=27.0 size=       1KiB time=00:00:04.70 bitrate=   1.2kbits/s speed=0.115x elapsed=0:00:40.74    \n[out#0/matroska @ 000001e460779000] video:3543KiB audio:0KiB subtitle:0KiB other streams:0KiB global headers:0KiB muxing overhead: 0.059296%\nframe=  300 fps=7.3 q=27.0 Lsize=    3545KiB time=00:00:04.98 bitrate=5827.0kbits/s speed=0.121x elapsed=0:00:41.25    \n",
  "seconds": 42.06680369377136,
  "probe_out": {}
}